<svg width="158" height="119" viewBox="0 0 158 119" fill="none" xmlns="http://www.w3.org/2000/svg">
<path d="M54.1348 44.3125H56.0879C58.0573 44.3125 60.694 45.7773 63.998 48.707L64.9746 48.6094H65.3652C72.1361 48.6094 78.0931 52.8411 83.2363 61.3047C85.1243 65.2435 86.0684 68.7591 86.0684 71.8516V72.2422C85.4661 73.2839 84.8151 73.8047 84.1152 73.8047H84.0176C83.1712 73.8047 82.4225 73.1862 81.7715 71.9492C81.7715 68.6777 80.0788 64.5762 76.6934 59.6445C73.1777 55.3477 69.6296 53.1992 66.0488 53.1992H64.4863C64.0306 53.1992 63.8027 53.5247 63.8027 54.1758V54.4688C63.8027 55.2988 65.1048 56.015 67.709 56.6172C71.2246 58.196 73.6986 60.5723 75.1309 63.7461L75.5215 65.9922V66.8711C75.5215 69.5078 74.0241 71.4284 71.0293 72.6328C70.3457 72.8281 69.6621 72.9258 68.9785 72.9258H68.8809C66.9115 72.9258 64.8607 72.1771 62.7285 70.6797H62.6309C60.8893 72.8932 58.6758 74 55.9902 74C52.7513 74 50.5703 72.112 49.4473 68.3359L49.252 66.6758V65.9922C49.252 62.4603 51.2051 58.4564 55.1113 53.9805C57.1621 51.9297 58.5944 50.7253 59.4082 50.3672C58.2038 49.3255 56.9017 48.8047 55.502 48.8047H55.4043C52.6862 48.8047 50.4727 50.7904 48.7637 54.7617C48.2428 55.2174 47.7546 55.4453 47.2988 55.4453H47.0059C45.7038 55.1849 45.0527 54.306 45.0527 52.8086C45.541 50.7904 46.9082 48.6094 49.1543 46.2656C51.026 44.9635 52.6862 44.3125 54.1348 44.3125ZM53.1582 65.4062C53.1582 67.9453 54.1022 69.4427 55.9902 69.8984H56.7715C58.7246 69.8984 59.7012 67.2943 59.7012 62.0859C59.7012 61.2396 60.2871 60.7188 61.459 60.5234H61.8496C63.347 60.5234 64.0957 61.207 64.0957 62.5742C64.5352 64.9993 65.2188 66.7572 66.1465 67.8477C67.0091 68.4987 67.8229 68.8242 68.5879 68.8242L69.1738 68.9219C70.4759 68.9219 71.127 68.2057 71.127 66.7734C71.127 64.4948 70.0853 62.444 68.002 60.6211C67.5788 60.2956 65.6908 59.6445 62.3379 58.668C61.2962 58.0169 60.5801 57.2357 60.1895 56.3242C60.0755 55.4779 59.9779 55.0547 59.8965 55.0547C57.1458 56.3893 55.0299 58.9935 53.5488 62.8672L53.1582 65.4062ZM82.333 30.3721H85.5557C92.5055 30.3721 99.0485 32.7484 105.185 37.501C108.033 40.4632 109.66 42.6442 110.067 44.0439C111.369 47.2666 112.021 49.7731 112.021 51.5635V53.7119C112.021 57.6833 110.914 61.6872 108.7 65.7236C105.266 71.3226 100.839 74.1221 95.4189 74.1221C90.7965 74.1221 87.5088 71.6156 85.5557 66.6025C85.2301 65.2191 85.0674 63.917 85.0674 62.6963C85.0674 58.4971 86.5973 54.8838 89.6572 51.8564C91.7731 49.9684 94.1169 49.0244 96.6885 49.0244H97.1768C100.172 49.0244 102.255 50.7497 103.427 54.2002L103.622 56.1533C103.622 60.1572 101.767 63.3799 98.0557 65.8213C96.6722 66.4723 95.1423 66.7979 93.4658 66.7979H93.3682C91.8057 66.7979 91.0244 66.3421 91.0244 65.4307C91.2848 64.1286 91.7406 63.4775 92.3916 63.4775C96.6885 62.0615 98.8369 59.7503 98.8369 56.5439C98.8369 54.3955 98.1208 53.3213 96.6885 53.3213C95.1748 53.3213 93.5146 54.4932 91.708 56.8369C90.1455 59.3597 89.3643 61.5081 89.3643 63.2822C89.3643 65.0726 90.113 66.9281 91.6104 68.8486C92.7822 69.5648 93.9215 69.9229 95.0283 69.9229H95.2236C99.2926 69.9229 102.841 66.7653 105.868 60.4502C106.975 57.6019 107.528 55.0954 107.528 52.9307V51.5635C107.528 44.7764 103.101 39.6982 94.2471 36.3291C90.943 35.2223 87.167 34.6689 82.9189 34.6689C81.8773 33.9528 81.3564 33.2041 81.3564 32.4229C81.3564 31.7881 81.682 31.1045 82.333 30.3721ZM105.014 69.0928H105.795C107.227 69.5485 107.943 70.2972 107.943 71.3389C109.115 75.7171 109.701 79.6885 109.701 83.2529V86.1826C109.701 89.5029 108.985 91.4235 107.553 91.9443L106.869 92.042C106.251 92.042 104.07 91.2933 100.326 89.7959C97.4616 88.8844 94.6296 88.4287 91.8301 88.4287H86.2637C84.5059 88.4287 81.0553 88.8193 75.9121 89.6006C74.7402 89.1123 74.1543 88.2334 74.1543 86.9639C74.3984 85.5316 75.0169 84.8154 76.0098 84.8154C80.2578 83.7087 84.6849 83.1553 89.291 83.1553C94.1576 83.1553 98.6497 83.9691 102.768 85.5967L103.256 85.6943C104.428 85.6943 105.014 84.6852 105.014 82.667C105.014 80.2581 104.232 76.2542 102.67 70.6553C103.858 69.6136 104.639 69.0928 105.014 69.0928Z" fill="black"/>
<path d="M1.16183 89.1323C15.3513 143.976 151.697 115.679 157.466 64.7737C166.559 -15.4491 42.5033 -8.15615 24.8215 18.0986C24.1666 19.071 24.2737 20.8672 24.8215 20.481C72.7385 -13.3098 160.015 8.03434 152.621 64.7737C144.095 107.997 4.40245 138.919 3.83612 79.4083C3.46323 40.2249 66.0056 3.31816 111.248 15.0841C112.601 14.5979 111.536 12.4719 110.053 12.0211C61.5379 -0.535857 -9.54651 36.8071 1.16183 89.1323Z" fill="black"/>
</svg>
