<svg width="353" height="347" viewBox="0 0 353 347" fill="none" xmlns="http://www.w3.org/2000/svg">
<g clip-path="url(#clip0_33_105)">
<path d="M216.198 63.3153C187.218 65.4393 157.768 67.9766 126.875 76.7731C111.901 81.0383 96.5417 86.829 81.263 94.8413C73.6145 98.8581 66.0019 103.425 58.5018 108.535C49.8237 114.452 41.0114 121.145 33.637 129.553C20.9873 143.977 16.4346 160.485 18.5088 173.844C20.9382 189.4 31.8573 197.912 44.5188 203.02C58.8561 208.786 75.4917 211.253 91.3657 214.366C107.285 217.481 123.375 220.26 139.638 222.704C172.15 227.581 205.335 231.217 239.258 233.184C243.526 233.431 247.818 233.624 252.11 233.816C253.292 233.865 255.802 233.792 256.386 231.658C256.913 229.697 254.267 228.689 253.014 228.616C220.443 226.473 188.17 223.767 156.601 219.514C125.032 215.26 94.4596 210.006 64.5622 203.103C50.5164 199.851 35.6677 195.651 29.1446 182.633C24.1841 172.774 24.205 157.538 32.7445 142.817C42.7189 125.615 61.5927 113.116 76.9826 104.085C91.5461 95.5337 106.358 89.0883 120.845 84.3682C150.566 74.6772 178.987 71.4807 206.719 69.2508C210.24 68.9683 213.744 68.7072 217.247 68.4461C218.634 68.3368 220.559 67.4649 220.4 65.6582C220.241 63.8515 217.791 63.2346 216.193 63.3481L216.198 63.3153Z" fill="black"/>
<path d="M240.064 211.756C259.467 219.046 278.189 227.535 295.69 237.609L296.543 233.034C268.962 239.773 242.25 243.211 216.796 243.163C215.379 243.172 213.41 244.23 213.574 246.004C213.731 247.92 216.288 248.332 217.893 248.372C243.801 248.698 271.323 245.286 299.608 238.076C303.022 237.219 301.879 234.271 300.461 233.5C282.097 223.464 263.064 214.449 242.972 206.939C241.962 206.555 239.115 206.266 237.941 208.227C236.766 210.189 239.125 211.396 240.064 211.756Z" fill="black"/>
</g>
<defs>
<clipPath id="clip0_33_105">
<rect width="273.234" height="222.349" fill="white" transform="translate(144.763) rotate(40.6218)"/>
</clipPath>
</defs>
</svg>
