<svg width="199" height="33" viewBox="0 0 199 33" fill="none" xmlns="http://www.w3.org/2000/svg">
<g clip-path="url(#clip0_24_828)">
<path d="M43.3108 6.71971C62.2137 5.75318 81.1269 5.13184 100.04 4.85569C118.953 4.57954 137.692 4.67159 156.512 5.10883C167.203 5.36197 177.905 5.70715 188.597 6.16741L190.047 1.44983C165.639 2.39335 141.242 3.56699 116.844 4.97075C92.446 6.37452 68.0482 8.00841 43.6504 9.89544C29.9543 10.954 16.2685 12.0586 2.57238 13.2553C1.76975 13.3243 0.565812 13.7846 0.113048 15.5335C-0.308846 17.1674 0.473201 18.0189 1.12148 17.9728C26.5483 16.5231 51.9957 16.385 77.4328 17.5816C102.87 18.7783 128.286 21.3327 153.672 25.1988C167.934 27.362 182.186 29.9624 196.417 32.977C197.189 33.1381 198.465 32.2867 198.876 30.6988C199.329 28.9728 198.485 28.3745 197.868 28.2595C172.544 22.8975 147.158 18.8473 121.752 16.1318C96.3459 13.4164 70.8986 12.0586 45.4615 12.0356C31.1685 12.0356 16.8756 12.4268 2.58267 13.2553L1.13177 17.9728C25.5193 15.8327 49.9171 13.9456 74.3149 12.2657C98.7127 10.6088 123.11 9.15904 147.508 7.96238C161.204 7.29502 174.911 6.67368 188.607 6.14439C189.409 6.12138 190.624 5.59209 191.066 3.86615C191.509 2.14021 190.696 1.44983 190.058 1.42682C171.134 0.644393 152.231 0.161129 133.318 0.0460661C114.405 -0.0689966 95.6668 0.138116 76.8462 0.71343C66.1548 1.03561 55.4531 1.47284 44.7617 2.02515C43.9591 2.07117 42.7449 2.57745 42.3024 4.30339C41.8805 5.93728 42.6626 6.78874 43.3108 6.74272V6.71971Z" fill="#E6E6E6"/>
</g>
<defs>
<clipPath id="clip0_24_828">
<rect width="199" height="33" fill="white"/>
</clipPath>
</defs>
</svg>
