<svg width="466" height="377" viewBox="0 0 466 377" fill="none" xmlns="http://www.w3.org/2000/svg">
<g clip-path="url(#clip0_24_815)">
<path d="M45.1378 279.668C66.1738 301.63 88.3501 323.377 114.883 330.073C138.592 336.034 161.117 330.07 179.193 317.933C198.869 304.706 212.753 282.769 221.296 257.99C225.692 245.244 228.844 231.751 230.999 217.768C232.043 210.818 232.871 203.74 233.496 196.625C234.12 189.51 234.762 182.289 233.12 174.726C231.691 168.262 228.002 161.782 222.743 158.121C217.18 154.233 211.312 155.207 206.863 158.095C196.815 164.626 191.464 179.332 189.046 192.679C184.331 218.484 190.566 254.728 213.74 274.735C236.914 294.742 264.658 289.506 283.551 276.402C302.444 263.299 319.276 241.353 331.848 219.238C355.724 177.28 368.631 125.475 367.668 69.9155C367.569 63.0378 367.189 56.1154 366.604 49.1558C365.953 41.165 354.807 49.2462 355.183 54.7657C358.613 103.834 352.173 150.568 335.422 190.789C327.144 210.631 316.56 228.834 303.631 244.352C289.707 261.125 272.536 277.969 248.726 275.163C238.021 273.9 226.838 268.529 218.139 258.789C209.441 249.049 203.361 235.403 200.615 222.27C197.869 209.137 198.244 196.532 201.036 185.217C202.233 180.367 203.907 175.653 206.212 171.573C207.285 169.697 208.214 167.896 210.515 168.132C213.234 168.389 215.864 170.777 217.817 173.28C225.857 183.659 222.522 198.897 221.344 209.358C219.921 221.936 217.757 234.228 214.653 245.999C208.954 267.577 199.647 287.914 184.874 301.55C169.385 315.856 147.931 322.658 125.524 318.528C98.7209 313.623 75.9621 291.263 54.7907 269.324C50.3888 264.772 41.1292 275.441 45.2067 279.728L45.1778 279.743L45.1378 279.668Z" fill="#E7A600"/>
<path d="M338.176 91.9248L352.13 49.6947L358.858 29.3653C360.739 23.7173 362.049 16.4332 366.094 12.6439L359.177 15.1911C364.967 19.298 368.308 27.5608 371.338 34.0501C374.75 41.4027 377.932 48.8774 381.143 56.3368C387.585 71.2934 394.159 87.1975 403.714 100.506C407.329 105.523 416.494 95.5822 413.298 90.102C404.299 74.706 397.059 59.0087 390.052 42.7041C386.589 34.6995 383.155 26.6796 379.22 18.8282C376.018 12.4305 372.753 6.88983 367.178 2.91109C364.823 1.25022 361.597 4.21792 360.261 5.45823C355.251 10.1454 352.654 16.9483 350.323 24.0461C347.742 31.8575 345.162 39.6689 342.552 47.4955L327.061 94.417C326.001 97.6433 328.599 99.9024 331.199 99.4468C334.669 98.8216 337.024 95.394 338.185 91.8717L338.176 91.9248Z" fill="#E7A600"/>
</g>
<defs>
<clipPath id="clip0_24_815">
<rect width="417.463" height="204.641" fill="white" transform="translate(0.336426 195.316) rotate(-27.8958)"/>
</clipPath>
</defs>
</svg>
