<svg width="272" height="167" viewBox="0 0 272 167" fill="none" xmlns="http://www.w3.org/2000/svg">
<g clip-path="url(#clip0_24_820)">
<path d="M27.8109 10.9696L210.809 21.7303L262.838 24.76L266.323 13.9471L64.6405 41.6324L7.50976 49.4679C5.17422 49.7813 1.07805 51.7141 0.179769 55.3184C-0.718514 58.9227 1.9404 60.0719 4.02442 60.2809L183.789 78.4592C200.784 80.183 217.78 81.9068 234.775 83.5783L230.715 80.7053C232.979 87.1304 227.589 88.0707 224.499 88.5408C218.031 89.5855 211.528 90.578 205.024 91.5183C191.766 93.5033 178.471 95.3838 165.176 97.1076C138.587 100.607 111.998 103.689 85.3729 106.301C83.0374 106.51 78.9771 108.6 78.0788 112.152C77.1806 115.704 79.8036 117.01 81.8876 117.114L153.894 119.778L189.466 121.084C196.149 121.345 211.025 118.107 213.899 130.434L221.409 122.547C169.991 134.822 118.466 146.001 66.8324 156.344C64.5687 156.814 59.7539 158.694 59.3946 162.821C59.0353 166.948 63.1314 167.261 65.0358 166.896C116.669 156.762 168.159 145.479 219.576 133.203C221.373 132.785 228.2 130.121 227.086 125.315C224.211 112.883 213.899 111.055 206.138 110.637C192.808 109.906 179.477 109.644 166.146 109.174L87.0257 106.249L83.5404 117.01C111.064 114.293 138.551 111.107 166.003 107.45C179.872 105.622 193.742 103.637 207.611 101.548C218.498 99.9283 232.26 100.712 241.027 89.3766C243.578 86.0334 246.058 80.4964 243.938 75.5861C242.608 72.5042 240.416 72.7654 238.117 72.5042C233.949 72.0341 229.781 71.6684 225.613 71.2505C211.887 69.8401 198.197 68.482 184.471 67.0716L102.189 58.766L9.19853 49.3112L5.71319 60.1241L207.396 32.4388L264.526 24.6033C266.862 24.2899 270.958 22.3572 271.856 18.7529C272.755 15.1485 270.096 13.8949 268.012 13.7904L85.0136 3.08191L32.9851 -4.11067e-05C30.1824 -0.156751 25.7269 1.46258 24.2178 5.27584C22.7087 9.08911 25.5473 10.8129 27.8109 10.9696Z" fill="#E7A600"/>
</g>
<defs>
<clipPath id="clip0_24_820">
<rect width="272" height="167" fill="white"/>
</clipPath>
</defs>
</svg>
