<svg width="91" height="32" viewBox="0 0 91 32" fill="none" xmlns="http://www.w3.org/2000/svg">
<g clip-path="url(#clip0_7_161)">
<path d="M90.3463 18.956L58.8948 17.3733C48.4594 16.838 38.024 16.3259 27.5885 15.7906C21.6949 15.4881 15.8012 14.8131 9.90753 14.9528C9.44386 14.9528 8.73438 15.5812 8.47741 17.4199C8.22044 19.2585 8.69528 20.0266 9.06399 20.0732C14.2985 20.7248 19.5441 20.6317 24.7842 20.8878C30.0242 21.1438 35.2699 21.3765 40.5155 21.6558L71.833 23.2152L89.5084 24.0531C89.9665 24.0531 90.6759 23.4247 90.9273 21.6093C91.1787 19.7939 90.715 18.9792 90.3463 18.9792V18.956Z" fill="black"/>
<path d="M11.3321 26.4968C8.15904 25.2633 5.08651 21.167 2.28213 14.8828L1.83522 19.049C5.06417 13.0907 8.37691 8.80818 11.7734 4.87478C12.0863 4.50239 12.7846 3.36193 12.684 1.52324C12.5835 -0.315445 11.7734 0.26642 11.4941 0.499166C7.87972 3.59468 4.32117 9.04093 0.952561 15.232C0.617376 15.8604 -0.0976868 18.0249 0.505646 19.3981C3.58935 26.3339 6.97472 30.407 10.4606 31.8034C10.9355 31.9896 11.6785 31.0354 11.941 29.2665C12.2259 27.3347 11.6952 26.6598 11.3321 26.5201V26.4968Z" fill="black"/>
</g>
<defs>
<clipPath id="clip0_7_161">
<rect width="90.7234" height="31.6068" fill="white" transform="matrix(-1 0 0 -1 91 31.8035)"/>
</clipPath>
</defs>
</svg>
