<svg width="91" height="32" viewBox="0 0 91 32" fill="none" xmlns="http://www.w3.org/2000/svg">
<g clip-path="url(#clip0_7_156)">
<path d="M0.65366 13.044L32.1052 14.6267C42.5406 15.162 52.976 15.6741 63.4115 16.2094C69.3051 16.5119 75.1988 17.1869 81.0925 17.0472C81.5561 17.0472 82.2656 16.4188 82.5226 14.5801C82.7796 12.7415 82.3047 11.9734 81.936 11.9268C76.7015 11.2752 71.4559 11.3683 66.2158 11.1122C60.9758 10.8562 55.7301 10.6235 50.4845 10.3442L19.167 8.78478L1.49162 7.9469C1.03354 7.9469 0.324061 8.57531 0.0726726 10.3907C-0.178716 12.2061 0.284956 13.0208 0.65366 13.0208V13.044Z" fill="black"/>
<path d="M79.6679 5.50316C82.841 6.73671 85.9135 10.833 88.7179 17.1172L89.1648 12.951C85.9358 18.9093 82.6231 23.1918 79.2266 27.1252C78.9137 27.4976 78.2154 28.6381 78.316 30.4768C78.4165 32.3154 79.2266 31.7336 79.5059 31.5008C83.1203 28.4053 86.6788 22.9591 90.0474 16.768C90.3826 16.1396 91.0977 13.9751 90.4944 12.6019C87.4107 5.66608 84.0253 1.59304 80.5394 0.196564C80.0645 0.0103676 79.3215 0.964624 79.059 2.73349C78.7741 4.66528 79.3048 5.34024 79.6679 5.47989V5.50316Z" fill="black"/>
</g>
<defs>
<clipPath id="clip0_7_156">
<rect width="90.7234" height="31.6068" fill="white" transform="translate(0 0.196533)"/>
</clipPath>
</defs>
</svg>
