<svg width="30" height="29" viewBox="0 0 30 29" fill="none" xmlns="http://www.w3.org/2000/svg">
<path d="M29.592 25.0724L23.7498 19.4258C23.4861 19.171 23.1286 19.0294 22.7536 19.0294H21.7985C23.4158 17.0302 24.3768 14.5156 24.3768 11.7801C24.3768 5.27273 18.9213 0 12.1884 0C5.45548 0 0 5.27273 0 11.7801C0 18.2875 5.45548 23.5602 12.1884 23.5602C15.0187 23.5602 17.6204 22.6314 19.6889 21.0683V21.9914C19.6889 22.3539 19.8354 22.6993 20.0991 22.9542L25.9414 28.6007C26.4922 29.1331 27.3829 29.1331 27.9278 28.6007L29.5861 26.998C30.137 26.4656 30.137 25.6047 29.592 25.0724ZM12.1884 19.0294C8.04551 19.0294 4.68784 15.7899 4.68784 11.7801C4.68784 7.776 8.03965 4.53081 12.1884 4.53081C16.3313 4.53081 19.6889 7.77034 19.6889 11.7801C19.6889 15.7842 16.3371 19.0294 12.1884 19.0294Z" fill="black"/>
</svg>
