<svg width="468" height="364" viewBox="0 0 468 364" fill="none" xmlns="http://www.w3.org/2000/svg">
<path d="M28.1225 171.668C19.0619 326.75 375.385 304.391 387.452 197.547C391.496 193.893 392.009 199.793 393.525 211.364C382.314 313.005 25.0393 345.837 15.5095 179.397C3.57147 -29.1055 456.108 -85.7126 467.895 171.668C474.185 309.02 197.043 401.297 16.0701 349.305C9.56308 347.191 4.95201 343.333 0.000244141 339.001C192.745 380.453 462.911 298.429 451.545 163.003C431.951 -70.4566 38.0169 2.31585 28.1225 171.668Z" fill="black"/>
<path d="M206.728 228.88C200.795 236.593 194.565 241.043 188.038 242.23C181.512 242.823 175.875 241.637 171.128 238.67C166.382 235.11 163.712 230.067 163.118 223.54C163.118 217.013 166.085 209.893 172.018 202.18C181.511 189.72 188.038 177.26 191.598 164.8C195.158 151.747 196.938 140.177 196.938 130.09L200.498 147.89C185.072 147.89 172.612 143.44 163.118 134.54C154.218 125.047 149.768 113.18 149.768 98.94C149.768 84.1066 153.921 72.24 162.228 63.34C171.128 54.44 182.698 49.99 196.938 49.99C212.365 49.99 224.528 55.33 233.428 66.01C242.328 76.0966 246.778 90.93 246.778 110.51C246.778 122.97 245.592 136.023 243.218 149.67C240.845 162.723 236.692 176.073 230.758 189.72C224.825 203.367 216.815 216.42 206.728 228.88ZM354.468 228.88C348.535 236.593 342.305 241.043 335.778 242.23C329.252 242.823 323.615 241.637 318.868 238.67C314.122 235.11 311.452 230.067 310.858 223.54C310.858 217.013 313.825 209.893 319.758 202.18C329.252 189.72 335.778 177.26 339.338 164.8C342.898 151.747 344.678 140.177 344.678 130.09L348.238 147.89C332.812 147.89 320.352 143.44 310.858 134.54C301.958 125.047 297.508 113.18 297.508 98.94C297.508 84.1066 301.662 72.24 309.968 63.34C318.868 54.44 330.438 49.99 344.678 49.99C360.105 49.99 372.268 55.33 381.168 66.01C390.068 76.0966 394.518 90.93 394.518 110.51C394.518 122.97 393.332 136.023 390.958 149.67C388.585 162.723 384.432 176.073 378.498 189.72C372.565 203.367 364.555 216.42 354.468 228.88Z" fill="black"/>
</svg>
