<svg width="57" height="149" viewBox="0 0 57 149" fill="none" xmlns="http://www.w3.org/2000/svg">
<g clip-path="url(#clip0_21_330)">
<path d="M34.1925 1.40757L30.9028 52.8045C29.7935 69.8575 28.7248 86.9109 27.6155 103.964C26.9886 113.595 25.7134 123.219 25.8564 132.858C25.8486 133.617 26.9307 134.788 30.1278 135.241C33.325 135.695 34.6703 134.932 34.7577 134.33C35.9812 125.783 35.9082 117.205 36.4429 108.641C36.9777 100.078 37.472 91.5054 38.0474 82.9334L41.2943 31.7553L43.0533 2.86986C43.0611 2.12086 41.9789 0.949451 38.8223 0.505589C35.6656 0.0617267 34.2393 0.805136 34.233 1.40799L34.1925 1.40757Z" fill="black"/>
<path d="M45.9811 130.738C43.7793 135.904 36.5947 140.854 25.6053 145.326L32.8517 146.132C22.5321 140.744 15.1317 135.25 8.34064 129.626C7.69755 129.107 5.72367 127.945 2.52047 128.076C-0.682727 128.207 0.316653 129.542 0.717162 130.003C6.04565 135.969 15.4681 141.886 26.1906 147.506C27.2791 148.065 31.0358 149.274 33.4371 148.312C45.5659 143.395 52.7153 137.934 55.206 132.259C55.5383 131.486 53.8894 130.254 50.8139 129.793C47.4551 129.292 46.2709 130.147 46.0216 130.739L45.9811 130.738Z" fill="black"/>
</g>
<defs>
<clipPath id="clip0_21_330">
<rect width="148.347" height="55.0362" fill="white" transform="translate(56.5735 0.571472) rotate(90.5949)"/>
</clipPath>
</defs>
</svg>
